<svg width="100" height="100" viewBox="0 0 100 100" fill="none" xmlns="http://www.w3.org/2000/svg">
<rect width="100" height="100" rx="50" fill="#DEF7FF"/>
<rect x="26" y="29" width="46" height="43" fill="white"/>
<g clip-path="url(#clip0_5819_88)">
<path fill-rule="evenodd" clip-rule="evenodd" d="M51.7839 47.7015V47.6211C51.7675 47.648 51.7447 47.675 51.7305 47.7015H51.7839Z" fill="#0068C4"/>
<path fill-rule="evenodd" clip-rule="evenodd" d="M22 23V78H77V23H22ZM39.1071 68.6926H30.947V44.1425H39.1071V68.6926ZM35.027 40.7917H34.9731C32.2358 40.7917 30.4615 38.9059 30.4615 36.5487C30.4615 34.1399 32.2877 32.3075 35.0805 32.3075C37.8738 32.3075 39.5905 34.1399 39.6439 36.5487C39.6439 38.9059 37.8738 40.7917 35.027 40.7917ZM68.5385 68.6926H60.3762V55.5582C60.3762 52.2593 59.1969 50.0074 56.2428 50.0074C53.9867 50.0074 52.646 51.5236 52.0554 52.9923C51.8407 53.5169 51.7846 54.2462 51.7846 54.9818V68.6927H43.6208C43.6208 68.6927 43.7302 46.4457 43.6208 44.1426H51.7846V47.6214C52.8693 45.9524 54.8049 43.5663 59.1408 43.5663C64.5123 43.5663 68.5385 47.0742 68.5385 54.6144V68.6926Z" fill="#0068C4"/>
</g>
<defs>
<clipPath id="clip0_5819_88">
<rect x="22" y="23" width="55" height="55" rx="7" fill="white"/>
</clipPath>
</defs>
</svg>
