<svg width="100" height="100" viewBox="0 0 100 100" fill="none" xmlns="http://www.w3.org/2000/svg">
<circle cx="50" cy="50" r="50" fill="#DEF7FF"/>
<circle cx="50" cy="50" r="37" fill="black"/>
<path d="M61.4602 48.174C61.2449 48.0708 61.0263 47.9715 60.8047 47.8763C60.4189 40.7652 56.5348 36.694 50.0128 36.6523C49.9832 36.6522 49.9539 36.6522 49.9243 36.6522C46.0233 36.6522 42.7789 38.3179 40.782 41.3491L44.3689 43.8106C45.8607 41.5464 48.2019 41.0637 49.926 41.0637C49.9459 41.0637 49.9659 41.0637 49.9856 41.0639C52.1331 41.0776 53.7536 41.7022 54.8024 42.9203C55.5656 43.8071 56.0761 45.0326 56.3289 46.5791C54.4249 46.2554 52.3658 46.1559 50.1646 46.2821C43.9638 46.6394 39.9774 50.2573 40.2451 55.2844C40.381 57.8344 41.6509 60.0281 43.8207 61.4612C45.6552 62.6727 48.018 63.2651 50.4737 63.131C53.7166 62.9531 56.2607 61.7154 58.0355 59.4521C59.3834 57.7333 60.2359 55.506 60.6124 52.6995C62.1579 53.6326 63.3032 54.8604 63.9358 56.3365C65.0114 58.8456 65.0742 62.9687 61.7112 66.3302C58.7646 69.275 55.2228 70.549 49.87 70.5883C43.9324 70.5443 39.4419 68.6393 36.5222 64.9263C33.7883 61.4495 32.3753 56.4276 32.3226 50C32.3753 43.5723 33.7883 38.5504 36.5222 35.0736C39.4419 31.3607 43.9323 29.4557 49.87 29.4116C55.8507 29.4561 60.4195 31.3702 63.4508 35.101C64.9372 36.9306 66.0579 39.2315 66.7967 41.9141L71 40.7922C70.1045 37.4902 68.6954 34.6447 66.7779 32.2849C62.8917 27.5017 57.2079 25.0508 49.8846 25H49.8553C42.5469 25.0506 36.9268 27.5109 33.1512 32.3123C29.7915 36.585 28.0584 42.5301 28.0002 49.9824L28 50L28.0002 50.0176C28.0584 57.4698 29.7915 63.4151 33.1512 67.6878C36.9268 72.4891 42.5469 74.9495 49.8553 75H49.8846C56.3822 74.9549 60.9622 73.2531 64.7352 69.482C69.6716 64.5484 69.523 58.3643 67.896 54.568C66.7287 51.8456 64.5033 49.6344 61.4602 48.174ZM50.2415 58.7258C47.5238 58.8789 44.7004 57.6586 44.5612 55.0448C44.458 53.1068 45.9399 50.9443 50.4083 50.6867C50.92 50.6571 51.4222 50.6427 51.9155 50.6427C53.5385 50.6427 55.057 50.8004 56.4374 51.1023C55.9225 57.5352 52.9023 58.5797 50.2415 58.7258Z" fill="white"/>
</svg>
