<svg width="100" height="100" viewBox="0 0 100 100" fill="none" xmlns="http://www.w3.org/2000/svg">
<circle cx="50" cy="50" r="50" fill="#DEF7FF"/>
<path d="M11.48 53.4965L11 57.8369L11.48 62.1773C11.48 62.4184 11.72 62.4184 11.72 62.4184C11.96 62.4184 11.96 62.1773 11.96 62.1773L12.68 57.8369L11.96 53.4965C11.96 53.2553 11.72 53.2553 11.72 53.2553C11.72 53.2553 11.48 53.2553 11.48 53.4965ZM14.36 50.844L13.64 57.8369L14.36 64.8298C14.36 65.0709 14.6 65.0709 14.6 65.0709C14.84 65.0709 14.84 64.8298 14.84 64.8298L15.8 57.8369L14.84 50.844C14.84 50.6028 14.6 50.6028 14.6 50.6028L14.36 50.844ZM23.48 49.8794L23 57.8369L23.48 66.2766C23.48 66.5177 23.72 66.7589 23.96 66.7589C24.2 66.7589 24.44 66.5177 24.44 66.2766L25.4 57.8369L24.68 49.8794C24.68 49.6383 24.44 49.3972 24.2 49.3972C23.72 49.3972 23.48 49.6383 23.48 49.8794ZM17.48 49.3972L16.76 57.8369L17.48 65.7943C17.48 66.0355 17.72 66.2766 17.96 66.2766C17.96 66.2766 18.2 66.0355 18.2 65.7943L18.92 57.8369L18.2 49.3972C18.2 49.156 17.96 48.9149 17.72 48.9149C17.72 49.156 17.48 49.156 17.48 49.3972ZM20.36 49.156L19.64 57.8369L20.36 66.0355C20.36 66.2766 20.6 66.5177 20.84 66.5177C21.08 66.5177 21.32 66.2766 21.32 66.0355L22.04 57.8369L21.32 49.156C21.32 48.9149 21.08 48.6738 20.84 48.6738C20.6 48.6738 20.6 48.9149 20.36 49.156ZM26.6 44.8156L25.88 57.8369L26.6 66.2766C26.6 66.5177 26.84 66.7589 27.08 66.7589C27.56 66.7589 27.8 66.5177 27.8 66.2766L28.52 57.8369L27.8 44.8156C27.8 44.5745 27.56 44.3333 27.32 44.3333C26.84 44.3333 26.6 44.5745 26.6 44.8156ZM29.72 41.922L29.24 57.8369L29.72 66.2766C29.72 66.7589 29.96 67 30.44 67C30.68 67 31.16 66.7589 31.16 66.2766L31.88 57.8369L31.16 41.922C31.16 41.4397 30.92 41.1986 30.44 41.1986C29.96 41.1986 29.72 41.4397 29.72 41.922ZM42.44 41.1986L41.96 57.8369L42.44 65.7943C42.44 66.2766 42.92 66.7589 43.4 66.7589C43.88 66.7589 44.36 66.2766 44.36 65.7943L44.84 57.8369L44.36 40.9574C44.36 40.4752 43.88 39.9929 43.4 39.9929C42.68 40.234 42.44 40.4752 42.44 41.1986ZM32.84 40.4752L32.36 57.8369L32.84 66.0355C32.84 66.5177 33.08 66.7589 33.56 66.7589C34.04 66.7589 34.28 66.5177 34.28 66.0355L34.76 57.8369L34.28 40.4752C34.28 39.9929 34.04 39.7518 33.56 39.7518C33.08 39.7518 32.84 40.234 32.84 40.4752ZM39.08 40.4752L38.6 57.8369L39.08 66.0355C39.08 66.5177 39.56 67 40.04 67C40.52 67 41 66.5177 41 66.0355L41.48 57.8369L41 40.4752C41 39.9929 40.52 39.5106 40.04 39.5106C39.56 39.5106 39.08 39.9929 39.08 40.4752ZM35.96 39.9929L35.48 57.8369L35.96 66.0355C35.96 66.5177 36.2 66.7589 36.68 66.7589C37.16 66.7589 37.4 66.5177 37.4 66.0355L37.88 57.8369L37.4 39.9929C37.4 39.5106 36.92 39.2695 36.68 39.2695C36.44 39.2695 35.96 39.5106 35.96 39.9929ZM45.56 37.8227L45.08 57.8369L45.56 65.7943C45.56 66.2766 46.04 66.7589 46.52 66.7589C47 66.7589 47.48 66.2766 47.48 65.7943L47.96 57.8369L47.48 37.8227C47.48 37.3404 47 36.8582 46.52 36.8582C46.04 36.8582 45.56 37.3404 45.56 37.8227ZM48.92 36.1348L48.44 57.8369L48.92 65.7943C48.92 66.2766 49.4 66.7589 49.88 66.7589C50.36 66.7589 50.84 66.2766 50.84 65.7943L51.32 57.8369L50.84 36.1348C50.84 35.6525 50.36 35.1702 49.88 35.1702H49.64C49.16 35.1702 48.92 35.6525 48.92 36.1348ZM52.76 33.9645C52.04 34.2057 51.8 34.4468 51.8 35.1702V65.7943C51.8 66.2766 52.28 66.7589 52.76 67H79.4C84.68 67 89 62.6596 89 57.3546C89 52.0496 84.68 47.7092 79.4 47.7092C78.2 47.7092 76.76 47.9504 75.8 48.4326C75.08 39.7518 67.88 33 59 33C58.52 33 58.28 33 57.8 33C56.12 33 54.44 33.4823 52.76 33.9645Z" fill="#F37223"/>
</svg>
