<svg width="250" height="250" viewBox="0 0 250 250" fill="none" xmlns="http://www.w3.org/2000/svg">
<rect width="250" height="250" rx="125" fill="#DEF7FF"/>
<path d="M165.5 174V69L162.5 62.5L110.5 60.5L86 72.5L88 143L90.5 177C92 188.333 97.4 211.5 107 213.5C116.6 215.5 129 215.333 134 215L165.5 174Z" fill="white"/>
<path d="M215 125.226C215 75.4211 174.68 35 125 35C75.32 35 35 75.4211 35 125.226C35 168.895 65.96 205.256 107 213.647V152.293H89V125.226H107V102.669C107 85.2556 121.13 71.0902 138.5 71.0902H161V98.1579H143C138.05 98.1579 134 102.218 134 107.18V125.226H161V152.293H134V215C179.45 210.489 215 172.053 215 125.226Z" fill="#1C7EF6"/>
</svg>
