<svg width="48" height="48" viewBox="0 0 48 48" fill="none" xmlns="http://www.w3.org/2000/svg">
<rect width="48" height="48" rx="4.5" fill="white"/>
<rect x="0.375" y="0.375" width="47.25" height="47.25" rx="4.125" stroke="black" stroke-opacity="0.1" stroke-width="0.75"/>
<path d="M35.1114 18.0345C35.129 18.2898 35.129 18.5451 35.129 18.8027C35.129 26.6533 29.1525 35.7074 18.2242 35.7074V35.7027C14.996 35.7074 11.8348 34.7827 9.11719 33.0392C9.5866 33.0957 10.0584 33.1239 10.5313 33.125C13.2066 33.1274 15.8054 32.2297 17.9101 30.5769C15.3678 30.5285 13.1384 28.871 12.3595 26.4509C13.2501 26.6227 14.1678 26.5874 15.0419 26.3486C12.2701 25.7886 10.276 23.3533 10.276 20.5251C10.276 20.4992 10.276 20.4745 10.276 20.4498C11.1019 20.9098 12.0266 21.1651 12.9725 21.1933C10.3619 19.4486 9.55719 15.9757 11.1337 13.2604C14.1501 16.9721 18.6007 19.2286 23.3784 19.4674C22.8995 17.4039 23.5537 15.2415 25.0972 13.7909C27.4902 11.5415 31.2537 11.6568 33.503 14.0486C34.8337 13.7862 36.109 13.298 37.276 12.6062C36.8325 13.9815 35.9042 15.1498 34.6642 15.8921C35.8419 15.7533 36.9925 15.438 38.076 14.9568C37.2784 16.1521 36.2737 17.1933 35.1114 18.0345Z" fill="#1D9BF0"/>
<path fill-rule="evenodd" clip-rule="evenodd" d="M30.5668 18.8928C31.1532 19.0916 31.7389 19.0018 32.2484 18.3786C32.9459 17.5262 32.512 16.5757 31.7084 15.623L32.7168 14.6145L32.0401 13.9378L31.0466 14.9314L30.5042 14.389L31.4977 13.3954L30.821 12.7187L29.8275 13.7123C29.6777 13.5625 29.5332 13.428 29.3886 13.2833L28.5518 12.4465L27.8414 13.1569C27.8414 13.1569 28.2491 13.5447 28.2288 13.5443C28.5026 13.8181 28.4416 14.0651 28.3333 14.225L27.1112 15.4471L25.4023 17.156C25.3075 17.2301 25.1217 17.3126 24.9306 17.1215C24.936 17.1368 24.5432 16.7341 24.5432 16.7341L23.5991 17.4095L24.8596 18.6699L23.866 19.6635L24.5427 20.3402L25.5363 19.3466L26.0786 19.889L25.0851 20.8825L25.7618 21.5592L26.7802 20.5409C27.9864 21.6179 29.0551 22.1402 30.1917 21.2102C31.104 20.4632 31.0685 19.6826 30.5718 18.8878L30.5668 18.8928ZM29.7545 15.1594L29.8939 15.2989C30.3791 15.7642 31.3751 16.7105 30.6846 17.401C30.009 18.0766 29.0114 17.0492 28.5564 16.5744L28.4428 16.4607L29.7443 15.1592L29.7545 15.1594ZM28.9778 19.738C28.2326 20.4831 27.0386 19.2493 26.4857 18.6865L26.3514 18.5522L27.787 17.1165L27.9523 17.2818C28.5355 17.8351 29.7277 18.9777 28.9677 19.7378L28.9778 19.738Z" fill="white"/>
</svg>
