<svg width="48" height="48" viewBox="0 0 48 48" fill="none" xmlns="http://www.w3.org/2000/svg">
<rect width="48" height="48" rx="4.5" fill="white"/>
<rect x="0.375" y="0.375" width="47.25" height="47.25" rx="4.125" stroke="black" stroke-opacity="0.1" stroke-width="0.75"/>
<path d="M21.8285 22.0679C21.1445 22.0679 20.6045 22.6679 20.6045 23.3999C20.6045 24.1319 21.1565 24.7319 21.8285 24.7319C22.5125 24.7319 23.0525 24.1319 23.0525 23.3999C23.0645 22.6679 22.5125 22.0679 21.8285 22.0679ZM26.2085 22.0679C25.5245 22.0679 24.9845 22.6679 24.9845 23.3999C24.9845 24.1319 25.5365 24.7319 26.2085 24.7319C26.8925 24.7319 27.4325 24.1319 27.4325 23.3999C27.4325 22.6679 26.8925 22.0679 26.2085 22.0679Z" fill="#7289DA"/>
<path d="M32.04 12H15.96C14.604 12 13.5 13.104 13.5 14.472V30.696C13.5 32.064 14.604 33.168 15.96 33.168H29.568L28.932 30.948L30.468 32.376L31.92 33.72L34.5 36V14.472C34.5 13.104 33.396 12 32.04 12ZM27.408 27.672C27.408 27.672 26.976 27.156 26.616 26.7C28.188 26.256 28.788 25.272 28.788 25.272C28.296 25.596 27.828 25.824 27.408 25.98C26.808 26.232 26.232 26.4 25.668 26.496C24.516 26.712 23.46 26.652 22.56 26.484C21.876 26.352 21.288 26.16 20.796 25.968C20.52 25.86 20.22 25.728 19.92 25.56C19.884 25.536 19.848 25.524 19.812 25.5C19.788 25.488 19.776 25.476 19.764 25.464C19.548 25.344 19.428 25.26 19.428 25.26C19.428 25.26 20.004 26.22 21.528 26.676C21.168 27.132 20.724 27.672 20.724 27.672C18.072 27.588 17.064 25.848 17.064 25.848C17.064 21.984 18.792 18.852 18.792 18.852C20.52 17.556 22.164 17.592 22.164 17.592L22.284 17.736C20.124 18.36 19.128 19.308 19.128 19.308C19.128 19.308 19.392 19.164 19.836 18.96C21.12 18.396 22.14 18.24 22.56 18.204C22.632 18.192 22.692 18.18 22.764 18.18C23.496 18.084 24.324 18.06 25.188 18.156C26.328 18.288 27.552 18.624 28.8 19.308C28.8 19.308 27.852 18.408 25.812 17.784L25.98 17.592C25.98 17.592 27.624 17.556 29.352 18.852C29.352 18.852 31.08 21.984 31.08 25.848C31.08 25.848 30.06 27.588 27.408 27.672Z" fill="#7289DA"/>
</svg>
