<svg width="48" height="48" viewBox="0 0 48 48" fill="none" xmlns="http://www.w3.org/2000/svg">
<path d="M44.3077 0H3.69231C1.6531 0 0 1.67893 0 3.75V44.25C0 46.3211 1.6531 48 3.69231 48H44.3077C46.3469 48 48 46.3211 48 44.25V3.75C48 1.67893 46.3469 0 44.3077 0Z" fill="#18171D"/>
<path d="M13 18.6818C13 17.7053 13.3725 16.7689 14.0356 16.0784C14.6987 15.3879 15.598 15 16.5357 15H31.4643C32.402 15 33.3013 15.3879 33.9644 16.0784C34.6275 16.7689 35 17.7053 35 18.6818V29.3182C35 30.2947 34.6275 31.2311 33.9644 31.9216C33.3013 32.6121 32.402 33 31.4643 33H16.5357C15.598 33 14.6987 32.6121 14.0356 31.9216C13.3725 31.2311 13 30.2947 13 29.3182V18.6818ZM16.5357 16.6364C16.0148 16.6364 15.5151 16.8519 15.1468 17.2355C14.7784 17.6191 14.5714 18.1393 14.5714 18.6818V19.9091H33.4286V18.6818C33.4286 18.1393 33.2216 17.6191 32.8532 17.2355C32.4849 16.8519 31.9852 16.6364 31.4643 16.6364H16.5357ZM14.5714 29.3182C14.5714 29.8607 14.7784 30.3809 15.1468 30.7645C15.5151 31.1481 16.0148 31.3636 16.5357 31.3636H31.4643C31.9852 31.3636 32.4849 31.1481 32.8532 30.7645C33.2216 30.3809 33.4286 29.8607 33.4286 29.3182V21.5455H14.5714V29.3182ZM27.9286 26.4545H30.2857C30.4941 26.4545 30.6939 26.5407 30.8413 26.6942C30.9886 26.8476 31.0714 27.0557 31.0714 27.2727C31.0714 27.4897 30.9886 27.6978 30.8413 27.8513C30.6939 28.0047 30.4941 28.0909 30.2857 28.0909H27.9286C27.7202 28.0909 27.5203 28.0047 27.373 27.8513C27.2256 27.6978 27.1429 27.4897 27.1429 27.2727C27.1429 27.0557 27.2256 26.8476 27.373 26.6942C27.5203 26.5407 27.7202 26.4545 27.9286 26.4545Z" fill="white"/>
</svg>
