<svg width="47" height="444" viewBox="0 0 47 444" fill="none" xmlns="http://www.w3.org/2000/svg">
<path d="M44.4976 293L42.1496 293.858L46.9414 292.473L44.4976 293ZM2.99957 183.5L0.503143 183.366L2.99957 183.5ZM31.5652 439.628C30.8076 440.783 31.1292 442.333 32.2835 443.09C33.4379 443.848 34.9877 443.526 35.7453 442.372L31.5652 439.628ZM31.2262 0.40808C17.2894 57.5971 20.0438 130.956 26.2176 189.823C29.3086 219.296 33.2655 245.211 36.4498 263.759C38.0421 273.034 39.4417 280.469 40.4438 285.589C40.9448 288.148 41.3466 290.13 41.6234 291.472C41.7618 292.144 41.869 292.656 41.9418 293.001C41.9782 293.173 42.006 293.304 42.0248 293.392C42.0342 293.436 42.0414 293.469 42.0462 293.492C42.0486 293.503 42.0505 293.512 42.0517 293.518C42.0524 293.521 42.0529 293.523 42.0532 293.524C42.0536 293.526 42.0538 293.527 44.4976 293C46.9414 292.473 46.9413 292.473 46.9411 292.472C46.9408 292.47 46.9404 292.469 46.9399 292.466C46.9388 292.461 46.9372 292.453 46.9349 292.443C46.9305 292.422 46.9237 292.391 46.9147 292.348C46.8967 292.264 46.8697 292.137 46.8341 291.968C46.7629 291.631 46.6572 291.127 46.5204 290.463C46.2468 289.136 45.8483 287.171 45.3506 284.628C44.3552 279.543 42.9628 272.146 41.3777 262.913C38.2073 244.445 34.2674 218.642 31.1903 189.302C25.028 130.544 22.3612 57.9029 36.084 1.59192L31.2262 0.40808ZM44.4976 293C46.8456 292.142 46.8454 292.141 46.8451 292.14C46.8448 292.139 46.8443 292.138 46.8437 292.136C46.8424 292.133 46.8405 292.128 46.838 292.121C46.833 292.107 46.8255 292.087 46.8156 292.06C46.7957 292.005 46.766 291.924 46.7269 291.817C46.6487 291.603 46.5326 291.286 46.3813 290.873C46.0785 290.045 45.6346 288.833 45.0694 287.291C43.9392 284.207 42.3245 279.806 40.3862 274.536C36.5098 263.995 31.3389 249.976 26.1618 236.065C20.9856 222.157 15.7999 208.349 11.895 198.233C9.94412 193.179 8.30518 189.026 7.14428 186.239C6.56894 184.858 6.08977 183.76 5.73933 183.049C5.59023 182.746 5.37625 182.327 5.13261 182.003C5.06498 181.913 4.93177 181.744 4.73789 181.572C4.63233 181.479 4.0766 180.977 3.18353 180.925C2.64389 180.893 2.07513 181.035 1.58553 181.379C1.13551 181.695 0.890635 182.084 0.763844 182.345C0.534836 182.815 0.509923 183.24 0.503143 183.366L5.49599 183.634C5.49214 183.706 5.47518 184.09 5.25906 184.534C5.13871 184.781 4.90151 185.16 4.4604 185.47C3.9797 185.808 3.42107 185.947 2.89278 185.916C2.02241 185.865 1.49423 185.379 1.42101 185.314C1.25947 185.17 1.16339 185.044 1.13758 185.009C1.06126 184.908 1.08989 184.925 1.25364 185.257C1.52893 185.816 1.9565 186.788 2.52868 188.161C3.66282 190.884 5.28201 194.985 7.23039 200.033C11.1239 210.12 16.301 223.905 21.4758 237.81C26.6498 251.712 31.8183 265.724 35.6935 276.261C37.631 281.53 39.2451 285.929 40.3748 289.012C40.9397 290.553 41.3834 291.765 41.6859 292.591C41.8371 293.004 41.9531 293.321 42.0312 293.535C42.0703 293.642 42.0999 293.722 42.1197 293.777C42.1296 293.804 42.1371 293.824 42.1421 293.838C42.1446 293.845 42.1464 293.85 42.1477 293.853C42.1483 293.855 42.1488 293.856 42.1491 293.857C42.1494 293.858 42.1496 293.858 44.4976 293ZM0.503143 183.366C-0.345767 199.224 1.58353 222.705 4.80586 249.008C8.03396 275.358 12.5826 304.71 17.0279 332.381C21.477 360.076 25.8177 386.058 28.6461 405.753C30.0607 415.602 31.0886 423.823 31.5635 429.867C31.8015 432.896 31.8954 435.316 31.8402 437.095C31.8125 437.986 31.7488 438.659 31.6642 439.138C31.5697 439.675 31.4852 439.75 31.5652 439.628L35.7453 442.372C36.2291 441.635 36.4568 440.753 36.5883 440.007C36.7298 439.204 36.806 438.271 36.8377 437.25C36.9013 435.204 36.7917 432.575 36.5482 429.475C36.0601 423.264 35.0131 414.914 33.5953 405.042C30.759 385.293 26.405 359.228 21.9646 331.588C17.5203 303.923 12.9846 274.65 9.76876 248.4C6.54714 222.103 4.67288 199.01 5.49599 183.634L0.503143 183.366Z" fill="url(#paint0_linear_4978_74)"/>
<defs>
<linearGradient id="paint0_linear_4978_74" x1="23.6502" y1="1" x2="23.6502" y2="441" gradientUnits="userSpaceOnUse">
<stop stop-color="#10CF7F"/>
<stop offset="1" stop-color="#10CF7F" stop-opacity="0"/>
</linearGradient>
</defs>
</svg>
