<svg width="48" height="48" viewBox="0 0 48 48" fill="none" xmlns="http://www.w3.org/2000/svg">
<rect width="48" height="48" rx="4.5" fill="white"/>
<rect x="0.375" y="0.375" width="47.25" height="47.25" rx="4.125" stroke="black" stroke-opacity="0.1" stroke-width="0.75"/>
<path d="M23.346 17.8858C23.135 17.8858 22.9262 17.8966 22.7206 17.9177C22.5149 17.9387 22.3121 17.9699 22.1127 18.0109C21.9133 18.0519 21.7175 18.1026 21.5256 18.1625L20.9623 18.3694L20.426 18.6283L19.92 18.9362L19.4471 19.2899L19.0108 19.6863L18.6141 20.1222L18.26 20.5945L17.9517 21.1001L17.6926 21.6358C17.6147 21.819 17.5454 22.0069 17.4854 22.1986C17.4255 22.3904 17.3747 22.5861 17.3337 22.7853C17.2926 22.9844 17.2614 23.187 17.2402 23.3925C17.2191 23.598 17.2085 23.8066 17.2085 24.0174C17.2085 24.2282 17.2193 24.4367 17.2402 24.6422C17.2611 24.8461 17.2923 25.0488 17.3337 25.2496C17.3747 25.4495 17.4255 25.6444 17.4854 25.8362C17.5454 26.028 17.6146 26.2157 17.6926 26.399L17.9517 26.9347L18.26 27.4402L18.6141 27.9126L19.0108 28.3486L19.4471 28.745L19.92 29.0986L20.426 29.4065L20.9623 29.6655L21.5256 29.8723L22.1127 30.024C22.3136 30.0653 22.5165 30.0965 22.7206 30.1173C22.9284 30.1385 23.1372 30.1491 23.346 30.149C23.5571 30.149 23.7658 30.1383 23.9714 30.1173C24.1755 30.0965 24.3784 30.0653 24.5793 30.024L25.1665 29.8723L25.7298 29.6655L26.266 29.4065L26.7721 29.0986L27.245 28.745L27.6814 28.3486L28.0782 27.9126L28.4322 27.4402L28.7405 26.9347L28.9997 26.399L29.2067 25.8362C29.2667 25.6444 29.3175 25.4487 29.3585 25.2496L29.4518 24.6422C29.473 24.4366 29.4837 24.2281 29.4837 24.0173C29.4837 23.8065 29.473 23.598 29.4518 23.3924C29.431 23.1886 29.3998 22.9859 29.3585 22.7852C29.3175 22.5853 29.2667 22.3904 29.2067 22.1985L28.9997 21.6357L28.7405 21.1001L28.4322 20.5945L28.0782 20.1221L27.6814 19.6862L27.245 19.2898L26.7721 18.9362L26.266 18.6282L25.7298 18.3693L25.1665 18.1625L24.5793 18.0108L23.9714 17.9176C23.7637 17.8964 23.5549 17.8858 23.346 17.8858ZM23.346 20.0022C23.4856 20.0022 23.6233 20.0091 23.7589 20.0228L24.1587 20.0833L24.5449 20.1817L24.9148 20.3161L25.2664 20.4844L25.597 20.6847L25.9061 20.9152L26.191 21.1736L26.4497 21.4583L26.6804 21.7671L26.8809 22.0981L27.0493 22.4495C27.0999 22.5698 27.1448 22.693 27.1838 22.819C27.2229 22.945 27.2557 23.0738 27.2823 23.205C27.3088 23.3362 27.3284 23.4696 27.3428 23.6052L27.3634 24.0178C27.3634 24.1572 27.3565 24.2948 27.3428 24.4304C27.3291 24.566 27.3089 24.6995 27.2823 24.8306C27.2556 24.9617 27.2227 25.0905 27.1838 25.2166L27.0493 25.5861L26.8809 25.9375L26.6804 26.2685L26.4497 26.5773L26.191 26.8619L25.9061 27.1204L25.597 27.3509L25.2664 27.5512L24.9148 27.7195L24.5449 27.8539L24.1587 27.9523L23.7589 28.0127C23.6217 28.0265 23.4839 28.0333 23.346 28.0333C23.208 28.0333 23.0702 28.0265 22.9329 28.0127L22.5331 27.9523C22.4019 27.9257 22.273 27.8928 22.1468 27.8539L21.777 27.7195L21.4254 27.5512L21.0948 27.3509L20.7857 27.1204L20.5008 26.8619L20.2421 26.5773L20.0114 26.2685L19.8109 25.9375L19.6425 25.5861L19.5079 25.2166L19.4095 24.8306L19.349 24.4304C19.3353 24.2933 19.3284 24.1556 19.3284 24.0178C19.3284 23.88 19.3353 23.7423 19.349 23.6052C19.3626 23.4696 19.3828 23.3361 19.4095 23.205C19.4359 23.0748 19.4688 22.946 19.508 22.8191L19.6426 22.4496L19.811 22.0982L20.0115 21.7671L20.2421 21.4584L20.5009 21.1737L20.7858 20.9152L21.0949 20.6848L21.4255 20.4845L21.7771 20.3161C21.8981 20.2653 22.0216 20.2205 22.147 20.1818L22.5333 20.0834C22.6645 20.0568 22.7982 20.0365 22.9331 20.0229C23.0703 20.0091 23.2081 20.0022 23.346 20.0022Z" fill="url(#paint0_radial_2007_7228)"/>
<path d="M29.7325 16.1411C29.6838 16.1411 29.6352 16.1436 29.5867 16.1485C29.5382 16.1534 29.49 16.1607 29.4422 16.1705C29.3945 16.1802 29.3472 16.1924 29.3007 16.2068C29.254 16.2213 29.2083 16.2382 29.1633 16.2573C29.1185 16.2764 29.0747 16.2978 29.0318 16.3213C28.989 16.3448 28.9475 16.3705 28.9073 16.3981C28.867 16.4258 28.8282 16.4556 28.791 16.4872C28.7537 16.5188 28.718 16.5522 28.684 16.5874C28.6502 16.6225 28.618 16.6594 28.5877 16.6978C28.5573 16.7363 28.529 16.7762 28.5027 16.8175C28.4763 16.8587 28.4522 16.9013 28.43 16.945C28.408 16.9887 28.388 17.0335 28.3703 17.0792C28.3527 17.1249 28.3373 17.1715 28.3242 17.2187C28.3112 17.266 28.3005 17.3139 28.2923 17.3622C28.284 17.4105 28.2782 17.4592 28.2747 17.5082C28.2722 17.5428 28.271 17.5775 28.271 17.6123C28.271 17.6613 28.2733 17.7104 28.2783 17.7592C28.2832 17.808 28.2905 17.8565 28.3002 17.9046C28.3098 17.9526 28.3218 18.0002 28.3362 18.047C28.3507 18.0939 28.3673 18.14 28.3863 18.1852C28.4053 18.2304 28.4265 18.2746 28.45 18.3177C28.4733 18.3607 28.4988 18.4026 28.5263 18.4431C28.5538 18.4836 28.5833 18.5226 28.6147 18.5601C28.6462 18.5976 28.6793 18.6336 28.7143 18.6678C28.7493 18.7019 28.7858 18.7343 28.8242 18.7648C28.8623 18.7953 28.902 18.8238 28.943 18.8504C28.984 18.8769 29.0263 18.9013 29.0697 18.9236C29.1132 18.9458 29.1577 18.9659 29.203 18.9837C29.2485 19.0015 29.2947 19.0169 29.3417 19.03C29.3887 19.0431 29.4362 19.0539 29.4842 19.0622C29.5322 19.0705 29.5807 19.0765 29.6292 19.0799C29.6637 19.0824 29.6982 19.0836 29.7327 19.0836C29.7813 19.0836 29.8302 19.0812 29.8787 19.0763C29.927 19.0714 29.9753 19.0641 30.023 19.0543C30.0708 19.0446 30.118 19.0325 30.1647 19.018C30.2112 19.0035 30.257 18.9866 30.3018 18.9675C30.3467 18.9484 30.3907 18.9271 30.4333 18.9036C30.4762 18.88 30.5177 18.8544 30.558 18.8267C30.5982 18.799 30.637 18.7693 30.6743 18.7377C30.7115 18.7061 30.7472 18.6727 30.7812 18.6375C30.8152 18.6023 30.8473 18.5654 30.8775 18.527C30.9078 18.4885 30.9362 18.4486 30.9625 18.4073C30.9888 18.3661 31.0132 18.3235 31.0352 18.2798C31.0573 18.2361 31.0773 18.1913 31.095 18.1455C31.1127 18.0998 31.128 18.0533 31.141 18.006C31.154 17.9587 31.1647 17.9109 31.173 17.8625C31.1813 17.8142 31.1872 17.7655 31.1905 17.7166C31.193 17.6819 31.1943 17.6472 31.1943 17.6125C31.1943 17.5634 31.1918 17.5144 31.187 17.4656C31.1822 17.4168 31.1748 17.3683 31.1652 17.3202C31.1555 17.2722 31.1433 17.2246 31.129 17.1778C31.1145 17.1309 31.0978 17.0848 31.0788 17.0396C31.0598 16.9944 31.0387 16.9502 31.0153 16.9071C30.992 16.8641 30.9665 16.8222 30.939 16.7817C30.9113 16.7412 30.8818 16.7022 30.8505 16.6646C30.819 16.6271 30.7858 16.5912 30.751 16.557C30.716 16.5228 30.6793 16.4904 30.6412 16.46C30.603 16.4295 30.5633 16.4009 30.5223 16.3745C30.4813 16.3479 30.439 16.3235 30.3955 16.3013C30.352 16.279 30.3075 16.2589 30.2622 16.2411C30.2168 16.2234 30.1705 16.2079 30.1235 16.1948C30.0767 16.1816 30.029 16.1709 29.981 16.1626C29.933 16.1542 29.8847 16.1483 29.836 16.1449C29.8015 16.1424 29.767 16.1411 29.7325 16.1411Z" fill="url(#paint1_radial_2007_7228)"/>
<path d="M22.1824 12.0215C21.5149 12.0204 20.9192 12.0232 20.384 12.0307L18.9493 12.0691C18.5243 12.0876 18.1488 12.1116 17.8117 12.1428C17.6432 12.1583 17.4842 12.1757 17.3335 12.1948C17.1901 12.2129 17.0471 12.234 16.9045 12.258C16.7688 12.281 16.64 12.3059 16.5166 12.333C16.3931 12.3601 16.2751 12.3893 16.1613 12.4207C16.0501 12.4513 15.9397 12.4851 15.8304 12.5218C15.7232 12.558 15.6186 12.5963 15.5153 12.6372C15.3088 12.719 15.1074 12.8108 14.8999 12.9137C14.7403 12.9928 14.5929 13.073 14.4528 13.1579C14.3127 13.2428 14.18 13.3325 14.05 13.4301C13.9162 13.5312 13.7872 13.6385 13.6635 13.7516C13.5342 13.8694 13.4021 13.999 13.2649 14.1438C13.0924 14.3247 12.9426 14.4934 12.8095 14.6589C12.743 14.7416 12.6808 14.8234 12.6221 14.9057C12.5641 14.9868 12.5086 15.0697 12.4558 15.1542C12.4035 15.238 12.354 15.3234 12.3066 15.4112C12.2585 15.5005 12.2131 15.5912 12.1703 15.6832C12.0828 15.8711 12.0012 16.0735 11.9197 16.2994C11.8592 16.4663 11.8051 16.6356 11.7574 16.8066C11.7087 16.9815 11.6654 17.1644 11.6268 17.3622C11.5882 17.5601 11.5545 17.7728 11.5249 18.0081C11.493 18.266 11.4675 18.5246 11.4485 18.7838C11.427 19.0687 11.4091 19.3823 11.3945 19.7313L11.3599 20.8916L11.3413 22.3061L11.3359 24.0158L11.3517 26.5021L11.4009 28.3858L11.4388 29.1216L11.4862 29.7314C11.5014 29.8958 11.5204 30.0596 11.5431 30.2231C11.5639 30.3683 11.5862 30.4953 11.6102 30.6053C11.6589 30.8288 11.7164 31.0503 11.7827 31.2693C11.8462 31.4789 11.9188 31.6856 12.0003 31.8889C12.0804 32.0881 12.1681 32.2801 12.2634 32.4649C12.3588 32.6498 12.4618 32.8274 12.5725 32.9981C12.6832 33.1686 12.8016 33.3323 12.928 33.4889C13.0543 33.6456 13.1886 33.7954 13.3304 33.9383C13.4724 34.0813 13.6222 34.2173 13.78 34.3466C13.9397 34.4774 14.1058 34.6004 14.2775 34.7149C14.4369 34.8214 14.5946 34.9191 14.7534 35.0086C14.9122 35.0983 15.0725 35.1794 15.2372 35.2534C15.4019 35.3273 15.5707 35.3938 15.7471 35.4536C15.9235 35.5134 16.1072 35.5666 16.3014 35.6138C16.4957 35.6611 16.7012 35.7024 16.9188 35.7386C17.1364 35.7748 17.369 35.8058 17.6175 35.8324C17.866 35.8591 18.1311 35.8811 18.416 35.8996C18.7008 35.9181 19.0053 35.9328 19.3325 35.9446C19.8378 35.9629 20.6029 35.9736 21.4851 35.9778L24.341 35.9719L27.0454 35.9341L28.0737 35.9051L28.7436 35.8708C28.8874 35.8589 29.0281 35.8451 29.1639 35.8289C29.2997 35.8128 29.4336 35.7943 29.5641 35.7731C29.6944 35.7521 29.8219 35.7286 29.9471 35.7024C30.0709 35.6766 30.1941 35.6478 30.3164 35.6161C30.4376 35.5853 30.5571 35.5503 30.6754 35.5131C30.7936 35.4761 30.9107 35.4359 31.0271 35.3928C31.1441 35.3494 31.2599 35.3033 31.3747 35.2544C31.4902 35.2051 31.6056 35.1526 31.7214 35.0968C31.8992 35.0111 32.0424 34.9396 32.1681 34.8699C32.2864 34.8051 32.4002 34.7326 32.5091 34.6528C32.6164 34.5738 32.7231 34.4838 32.8461 34.3704C32.9691 34.2571 33.1086 34.1206 33.2811 33.9479C33.4329 33.7963 33.5607 33.6644 33.6711 33.5446C33.7814 33.4248 33.8744 33.3169 33.9559 33.2129C34.0336 33.1143 34.1059 33.0116 34.1727 32.9053C34.2379 32.8014 34.2979 32.6936 34.3589 32.5741C34.4509 32.3943 34.5327 32.2276 34.6059 32.0668C34.6771 31.9119 34.7421 31.7541 34.8007 31.5941C34.8586 31.4353 34.9087 31.2738 34.9509 31.1101C34.9942 30.9418 35.0316 30.7639 35.0639 30.5689C35.0961 30.3739 35.1234 30.1618 35.1471 29.9248C35.1707 29.6879 35.1909 29.4259 35.2086 29.1318L35.2556 28.144L35.2957 26.9155L35.3246 25.547L35.3356 24.116L35.3099 21.3054L35.2756 20.0465L35.2287 18.9656L35.1702 18.1229C35.1491 17.8884 35.1261 17.7038 35.1019 17.5789C35.0749 17.4409 35.0449 17.3036 35.0117 17.167C34.9794 17.0341 34.9439 16.902 34.9052 16.7708C34.8676 16.643 34.8266 16.5162 34.7824 16.3905C34.7387 16.2663 34.6924 16.1447 34.6439 16.0258C34.5956 15.9068 34.5431 15.7907 34.4886 15.677C34.4339 15.5632 34.3767 15.4523 34.3167 15.3439C34.2566 15.2355 34.1941 15.1298 34.1286 15.0266C34.0632 14.9235 33.9951 14.823 33.9241 14.7252C33.8536 14.6278 33.7799 14.5325 33.7034 14.4396C33.6272 14.3472 33.5482 14.2573 33.4664 14.1699C33.3847 14.0826 33.3002 13.998 33.2132 13.916C33.1261 13.8341 33.0364 13.7547 32.9439 13.678C32.8509 13.601 32.7557 13.5269 32.6581 13.4559C32.5596 13.3841 32.4589 13.3153 32.3561 13.2497C32.2519 13.1831 32.1459 13.1196 32.0379 13.0593C31.9282 12.998 31.8166 12.9398 31.7036 12.8849C31.5157 12.7936 31.3421 12.7127 31.1717 12.6409C31.0041 12.5696 30.8332 12.5063 30.6597 12.4512C30.4852 12.3962 30.3036 12.3491 30.1037 12.3084C29.9037 12.2677 29.6857 12.2338 29.4391 12.205C29.1924 12.1762 28.9169 12.1529 28.6017 12.1335C28.2867 12.1141 27.9323 12.0989 27.5276 12.0866L26.1524 12.0558L24.412 12.0353L22.1832 12.0216L22.1824 12.0215ZM23.3399 14.136L26.554 14.1543L27.7665 14.1777C28.1004 14.187 28.3552 14.198 28.5046 14.2107C28.6992 14.2271 28.8844 14.2476 29.0617 14.2722C29.2317 14.2957 29.4011 14.3249 29.5691 14.3598C29.7306 14.3936 29.8846 14.4321 30.0321 14.4754C30.1794 14.5188 30.3202 14.5674 30.4552 14.6211C30.5904 14.6749 30.7196 14.734 30.8439 14.7988C30.9672 14.863 31.0871 14.9337 31.2029 15.0106C31.3182 15.0871 31.4294 15.1695 31.5374 15.2583C31.6452 15.3471 31.7499 15.4423 31.8521 15.5441C31.9601 15.6515 32.0596 15.7609 32.1512 15.8738C32.2426 15.986 32.3272 16.1035 32.4044 16.2258C32.4826 16.3499 32.5529 16.4787 32.6152 16.6114C32.6789 16.7468 32.7361 16.8898 32.7874 17.0418C32.8389 17.1938 32.8846 17.3553 32.9251 17.5279C32.9676 17.7109 33.0031 17.8955 33.0317 18.0811C33.0624 18.278 33.0887 18.4879 33.1111 18.7126C33.1332 18.9373 33.1517 19.177 33.1669 19.4334C33.1791 19.6391 33.1897 19.9105 33.1987 20.231L33.2212 21.324L33.2384 24.0012L33.2189 26.6758L33.1954 27.7656L33.1629 28.5582C33.1406 28.9294 33.1169 29.2414 33.0886 29.5129C33.0744 29.6488 33.0589 29.7744 33.0419 29.8923C33.0259 30.0036 33.0069 30.1144 32.9851 30.2248C32.9651 30.3254 32.9419 30.4254 32.9154 30.5248C32.8902 30.6193 32.8617 30.7131 32.8302 30.8059C32.7984 30.8991 32.7639 30.9913 32.7266 31.0823C32.6871 31.1786 32.6454 31.2738 32.6016 31.3681C32.5626 31.4523 32.5216 31.5343 32.4782 31.6139C32.4354 31.6929 32.3897 31.7703 32.3417 31.8461C32.2941 31.9213 32.2441 31.9943 32.1917 32.0649C32.1397 32.1353 32.0852 32.2038 32.0282 32.2703C31.9716 32.3366 31.9124 32.4006 31.8509 32.4626C31.7894 32.5244 31.7256 32.5841 31.6594 32.6418C31.5934 32.6994 31.5247 32.7549 31.4537 32.8083C31.3829 32.8616 31.3094 32.9128 31.2336 32.9618C31.1576 33.0109 31.0794 33.0579 30.9986 33.1029C30.9177 33.1478 30.8344 33.1906 30.7487 33.2314C30.6614 33.2729 30.5731 33.3118 30.4834 33.3479C30.3909 33.3853 30.2974 33.4199 30.2029 33.4521C30.0106 33.5176 29.8079 33.5751 29.5944 33.6246C29.3721 33.6761 29.1476 33.7181 28.9216 33.7506C28.8346 33.7633 28.6349 33.7753 28.3489 33.7863L27.259 33.8166L24.1689 33.8568L20.9346 33.8618L19.6645 33.8483L18.8397 33.8226L18.2315 33.7798C18.0427 33.7639 17.8671 33.7463 17.7025 33.7261C17.538 33.7061 17.3848 33.6838 17.2406 33.6584C17.104 33.6349 16.9682 33.6066 16.8335 33.5739C16.7107 33.5441 16.5891 33.5093 16.4691 33.4696C16.3533 33.4311 16.2427 33.3888 16.1351 33.3423C16.0274 33.2958 15.9228 33.2448 15.8193 33.1891C15.7157 33.1334 15.6132 33.0731 15.5096 33.0071C15.4314 32.9574 15.3558 32.9071 15.2831 32.8539C15.2103 32.8006 15.1401 32.7474 15.0724 32.6918C15.0047 32.6361 14.9398 32.5788 14.8771 32.5198C14.8149 32.4609 14.7548 32.3999 14.6969 32.3369C14.6392 32.2739 14.5841 32.2093 14.5312 32.1423C14.4781 32.0749 14.4275 32.0056 14.3795 31.9346C14.3308 31.8624 14.2847 31.7886 14.2413 31.7133C14.1975 31.6371 14.1558 31.5584 14.1162 31.4771C14.076 31.3944 14.0384 31.3104 14.0036 31.2253C13.9682 31.1384 13.9347 31.0489 13.9032 30.9566C13.8401 30.7716 13.7848 30.5748 13.7367 30.3649C13.6885 30.1551 13.6475 29.9321 13.6127 29.6944C13.578 29.4569 13.55 29.2049 13.5277 28.9373C13.5112 28.7401 13.4982 28.4329 13.4882 28.0454L13.4672 26.6672L13.4749 23.1539L13.5354 19.7967L13.5816 18.6139L13.6077 18.2229C13.6168 18.1185 13.6262 18.0411 13.6358 17.9947C13.6675 17.8419 13.6994 17.6998 13.7323 17.5667C13.7632 17.4411 13.7974 17.3164 13.8351 17.1928C13.871 17.0761 13.9087 16.9667 13.9491 16.8632C13.988 16.7628 14.0314 16.6643 14.0791 16.5678C14.1257 16.474 14.1758 16.3842 14.2301 16.2968C14.2845 16.2094 14.3431 16.1246 14.4071 16.0402C14.4711 15.9559 14.54 15.8726 14.6149 15.7882C14.6899 15.7038 14.7709 15.6185 14.8587 15.5306C14.961 15.4277 15.0675 15.3291 15.178 15.235C15.2824 15.1462 15.3912 15.0629 15.504 14.9852C15.615 14.9083 15.7288 14.8399 15.8473 14.777C15.9658 14.7141 16.0889 14.6573 16.2185 14.6062C16.348 14.555 16.4841 14.5093 16.6283 14.4678C16.7797 14.4253 16.9329 14.389 17.0873 14.3591C17.2497 14.3273 17.4221 14.2995 17.6063 14.2753C17.7904 14.2511 17.9863 14.2302 18.1958 14.212C18.3419 14.1994 18.5936 14.1882 18.925 14.1787L20.1314 14.1549L23.3405 14.1353L23.3399 14.136Z" fill="url(#paint2_radial_2007_7228)"/>
<defs>
<radialGradient id="paint0_radial_2007_7228" cx="0" cy="0" r="1" gradientUnits="userSpaceOnUse" gradientTransform="translate(15.1592 37.7246) rotate(-9.53101) scale(50.723 30.7885)">
<stop stop-color="#FED576"/>
<stop offset="0.263" stop-color="#F47133"/>
<stop offset="0.609" stop-color="#BC3081"/>
<stop offset="1" stop-color="#4C63D2"/>
</radialGradient>
<radialGradient id="paint1_radial_2007_7228" cx="0" cy="0" r="1" gradientUnits="userSpaceOnUse" gradientTransform="translate(15.1593 37.7242) rotate(-9.53102) scale(50.723 30.7885)">
<stop stop-color="#FED576"/>
<stop offset="0.263" stop-color="#F47133"/>
<stop offset="0.609" stop-color="#BC3081"/>
<stop offset="1" stop-color="#4C63D2"/>
</radialGradient>
<radialGradient id="paint2_radial_2007_7228" cx="0" cy="0" r="1" gradientUnits="userSpaceOnUse" gradientTransform="translate(15.1595 37.7241) rotate(-9.53101) scale(50.723 30.7885)">
<stop stop-color="#FED576"/>
<stop offset="0.263" stop-color="#F47133"/>
<stop offset="0.609" stop-color="#BC3081"/>
<stop offset="1" stop-color="#4C63D2"/>
</radialGradient>
</defs>
</svg>
