<svg width="25" height="20" viewBox="0 0 25 20" fill="none" xmlns="http://www.w3.org/2000/svg">
<path d="M21.7595 5.0286C21.7742 5.24135 21.7742 5.45409 21.7742 5.6688C21.7742 12.211 16.7938 19.756 7.68688 19.756V19.7521C4.99668 19.756 2.36236 18.9854 0.0976562 17.5325C0.488832 17.5796 0.88197 17.6031 1.27609 17.6041C3.5055 17.606 5.67118 16.8579 7.42511 15.4806C5.30649 15.4403 3.44864 14.0591 2.79961 12.0423C3.54178 12.1855 4.30649 12.1561 5.03492 11.957C2.72511 11.4904 1.06334 9.46095 1.06334 7.10409C1.06334 7.08252 1.06334 7.06194 1.06334 7.04135C1.75158 7.42469 2.52217 7.63742 3.3104 7.66095C1.13491 6.20703 0.464323 3.31292 1.77805 1.05017C4.29178 4.14331 8.0006 6.0237 11.982 6.22273C11.5829 4.50312 12.1281 2.70116 13.4143 1.49232C15.4085 -0.382181 18.5448 -0.286103 20.4192 1.70703C21.5281 1.48841 22.5909 1.08154 23.5634 0.505073C23.1938 1.65116 22.4202 2.62469 21.3868 3.24331C22.3682 3.12762 23.3271 2.86488 24.23 2.46389C23.5653 3.45998 22.7281 4.32762 21.7595 5.0286Z" fill="#1D9BF0"/>
</svg>
