<svg width="49" height="48" viewBox="0 0 49 48" fill="none" xmlns="http://www.w3.org/2000/svg">
<path d="M45.1622 0H4.5468C2.50759 0 0.854492 1.67893 0.854492 3.75V44.25C0.854492 46.3211 2.50759 48 4.5468 48H45.1622C47.2014 48 48.8545 46.3211 48.8545 44.25V3.75C48.8545 1.67893 47.2014 0 45.1622 0Z" fill="#18171D"/>
<path d="M19.8119 30.1078L15.8008 33.2595V16.6015C15.8008 16.3627 15.8956 16.1337 16.0645 15.9649C16.2333 15.796 16.4623 15.7012 16.7011 15.7012H32.9074C33.0257 15.7012 33.1427 15.7245 33.252 15.7697C33.3612 15.815 33.4604 15.8813 33.544 15.9649C33.6276 16.0485 33.694 16.1477 33.7392 16.257C33.7845 16.3662 33.8077 16.4833 33.8077 16.6015V29.2074C33.8077 29.4462 33.7129 29.6753 33.544 29.8441C33.3752 30.013 33.1462 30.1078 32.9074 30.1078H19.8119ZM19.189 28.3071H32.0071V17.5019H17.6014V29.5544L19.189 28.3071ZM20.3031 22.0038H22.1037C22.1202 22.709 22.4119 23.3798 22.9165 23.8727C23.4211 24.3657 24.0985 24.6416 24.8039 24.6416C25.5093 24.6416 26.1867 24.3657 26.6913 23.8727C27.1958 23.3798 27.4876 22.709 27.5041 22.0038H29.3047C29.3047 23.1978 28.8304 24.343 27.9861 25.1873C27.1418 26.0316 25.9968 26.506 24.8028 26.506C23.6088 26.506 22.4637 26.0316 21.6194 25.1873C20.7752 24.343 20.3009 23.1978 20.3009 22.0038H20.3031Z" fill="white"/>
</svg>
