<svg width="48" height="48" viewBox="0 0 48 48" fill="none" xmlns="http://www.w3.org/2000/svg">
<rect width="48" height="48" rx="4" fill="#18171D"/>
<g clip-path="url(#clip0_8066_19179)">
<path fill-rule="evenodd" clip-rule="evenodd" d="M29.9006 30.5381C28.9078 31.5027 27.8511 32.5044 27.8511 32.5044L26.0293 29.3941C27.9371 28.9294 29.5864 27.828 30.7366 26.3293L32.7289 29.7296C32.7289 29.7296 31.3086 30.138 29.9006 30.5381ZM23.9984 28.1305C20.2048 28.1305 17.1303 25.0484 17.1303 21.2479C17.1303 17.4474 20.2048 14.3654 23.9984 14.3654C27.792 14.3654 30.8665 17.4474 30.8665 21.2479C30.8665 25.0484 27.792 28.1305 23.9984 28.1305ZM20.1456 32.5044C20.1456 32.5044 19.0889 31.5027 18.0962 30.5381C16.6882 30.138 15.2678 29.7296 15.2678 29.7296L17.2602 26.3293C18.4104 27.828 20.0597 28.9294 21.9675 29.3941L20.1456 32.5044ZM31.5753 24.9873C32.1274 23.8797 32.4464 22.6394 32.4464 21.3229C32.4464 16.7262 28.6638 13 23.9984 13C19.333 13 15.5504 16.7262 15.5504 21.3229C15.5504 22.6394 15.8694 23.8797 16.4214 24.9873L12.9922 30.8379C12.9922 30.8379 15.1668 31.2744 17.3729 31.7282C18.8442 33.3658 20.3086 35 20.3086 35L23.4614 29.6196C23.6402 29.6306 23.8169 29.6464 23.9984 29.6464C24.1799 29.6464 24.3566 29.6306 24.5353 29.6196L27.6882 35C27.6882 35 29.1526 33.3658 30.6238 31.7282C32.83 31.2744 35.0046 30.8379 35.0046 30.8379L31.5753 24.9873ZM23.9984 24.6875C22.0995 24.6875 20.5609 23.1489 20.5609 21.25C20.5609 19.3511 22.0995 17.8125 23.9984 17.8125C25.8973 17.8125 27.4359 19.3511 27.4359 21.25C27.4359 23.1489 25.8973 24.6875 23.9984 24.6875ZM23.9984 16.4375C21.3405 16.4375 19.1859 18.5921 19.1859 21.25C19.1859 23.9079 21.3405 26.0625 23.9984 26.0625C26.6563 26.0625 28.8109 23.9079 28.8109 21.25C28.8109 18.5921 26.6563 16.4375 23.9984 16.4375Z" fill="white"/>
</g>
<defs>
<clipPath id="clip0_8066_19179">
<rect width="22" height="22" fill="white" transform="translate(13 13)"/>
</clipPath>
</defs>
</svg>
