<svg width="48" height="48" viewBox="0 0 48 48" fill="none" xmlns="http://www.w3.org/2000/svg">
<g clip-path="url(#clip0_5105_1957)">
<path d="M44 0H4C1.79086 0 0 1.79086 0 4V44C0 46.2091 1.79086 48 4 48H44C46.2091 48 48 46.2091 48 44V4C48 1.79086 46.2091 0 44 0Z" fill="#18171D"/>
<path d="M18 35C17.45 35 16.9793 34.7857 16.588 34.3571C16.1967 33.9285 16.0007 33.4126 16 32.8095V21.8571C16 21.2548 16.196 20.7393 16.588 20.3107C16.98 19.8821 17.4507 19.6674 18 19.6667H19V17.4762C19 15.9611 19.4877 14.6698 20.463 13.6023C21.4383 12.5348 22.6173 12.0007 24 12C25.3827 11.9993 26.562 12.5334 27.538 13.6023C28.514 14.6713 29.0013 15.9626 29 17.4762V19.6667H30C30.55 19.6667 31.021 19.8813 31.413 20.3107C31.805 20.74 32.0007 21.2555 32 21.8571V32.8095C32 33.4119 31.8043 33.9278 31.413 34.3571C31.0217 34.7864 30.5507 35.0007 30 35H18ZM18 32.8095H30V21.8571H18V32.8095ZM24 29.5238C24.55 29.5238 25.021 29.3095 25.413 28.8809C25.805 28.4523 26.0007 27.9364 26 27.3333C25.9993 26.7302 25.8037 26.2147 25.413 25.7869C25.0223 25.359 24.5513 25.1443 24 25.1429C23.4487 25.1414 22.978 25.3561 22.588 25.7869C22.198 26.2177 22.002 26.7331 22 27.3333C21.998 27.9335 22.194 28.4494 22.588 28.8809C22.982 29.3124 23.4527 29.5267 24 29.5238ZM21 19.6667H27V17.4762C27 16.5635 26.7083 15.7877 26.125 15.1488C25.5417 14.5099 24.8333 14.1905 24 14.1905C23.1667 14.1905 22.4583 14.5099 21.875 15.1488C21.2917 15.7877 21 16.5635 21 17.4762V19.6667Z" fill="white"/>
</g>
<defs>
<clipPath id="clip0_5105_1957">
<rect width="48" height="48" fill="white"/>
</clipPath>
</defs>
</svg>
