<svg width="48" height="48" viewBox="0 0 48 48" fill="none" xmlns="http://www.w3.org/2000/svg">
<rect width="48" height="48" rx="4" fill="#18171D"/>
<path d="M24.0098 33.974C29.464 33.974 33.9741 29.454 33.9741 23.9997C33.9741 18.5555 29.454 14.0254 23.9997 14.0254C18.5455 14.0254 14.0254 18.5555 14.0254 23.9997C14.0254 29.454 18.5555 33.974 24.0098 33.974ZM21.1169 18.7966C21.7095 17.2999 22.5231 16.2252 23.4171 15.8937V19.0276C22.5935 19.0075 21.8201 18.9272 21.1169 18.7966ZM24.5723 15.8937C25.4663 16.2252 26.2899 17.2999 26.8725 18.7966C26.1694 18.9272 25.406 19.0075 24.5723 19.0276V15.8937ZM26.6917 16.1749C27.7665 16.5466 28.7408 17.1191 29.5544 17.8725C29.1125 18.1236 28.6002 18.3345 28.0276 18.5153C27.666 17.5812 27.204 16.7877 26.6917 16.1749ZM18.435 17.8725C19.2587 17.1292 20.233 16.5466 21.3078 16.1749C20.7855 16.7877 20.3334 17.5812 19.9618 18.5153C19.3993 18.3345 18.887 18.1236 18.435 17.8725ZM28.9819 23.4171C28.9317 22.0209 28.7207 20.7252 28.3893 19.5801C29.1426 19.349 29.8055 19.0578 30.3681 18.7162C31.4328 20.0019 32.1258 21.6292 32.2464 23.4171H28.9819ZM15.7531 23.4171C15.8736 21.6292 16.5567 20.0019 17.6314 18.7162C18.1839 19.0578 18.8569 19.349 19.6002 19.5801C19.2687 20.7252 19.0678 22.0209 19.0176 23.4171H15.7531ZM24.5723 23.4171V20.1827C25.5165 20.1526 26.4105 20.0421 27.2442 19.8714C27.5455 20.9461 27.7464 22.1515 27.7966 23.4171H24.5723ZM20.2029 23.4171C20.243 22.1515 20.4439 20.9461 20.7553 19.8714C21.579 20.0421 22.483 20.1526 23.4171 20.1827V23.4171H20.2029ZM15.7531 24.5722H19.0176C19.0578 25.9885 19.2687 27.3144 19.6002 28.4696C18.8669 28.7006 18.204 28.9818 17.6515 29.3234C16.5667 28.0176 15.8736 26.3803 15.7531 24.5722ZM20.1928 24.5722H23.4171V27.8669C22.483 27.897 21.579 27.9975 20.7553 28.1783C20.4439 27.0935 20.243 25.8579 20.1928 24.5722ZM24.5723 27.8669V24.5722H27.7966C27.7564 25.8579 27.5555 27.0935 27.2442 28.1783C26.4105 27.9975 25.5165 27.897 24.5723 27.8669ZM28.3893 28.4696C28.7307 27.3144 28.9317 25.9885 28.9819 24.5722H32.2464C32.1359 26.3803 31.4428 28.0276 30.348 29.3234C29.7955 28.9919 29.1325 28.7006 28.3893 28.4696ZM21.1169 29.253C21.8201 29.1225 22.5935 29.0421 23.4171 29.022V32.1559C22.5231 31.8245 21.7095 30.7497 21.1169 29.253ZM24.5723 29.022C25.406 29.0421 26.1694 29.1225 26.8725 29.253C26.2899 30.7497 25.4663 31.8245 24.5723 32.1559V29.022ZM18.4651 30.1571C18.9071 29.916 19.4093 29.7051 19.9618 29.5343C20.3234 30.4383 20.7553 31.2017 21.2575 31.8144C20.2129 31.4528 19.2687 30.8803 18.4651 30.1571ZM28.0276 29.5343C28.5901 29.7051 29.0924 29.916 29.5344 30.1671C28.7307 30.8903 27.7765 31.4629 26.7319 31.8245C27.2341 31.2118 27.6761 30.4383 28.0276 29.5343Z" fill="white"/>
</svg>
