<svg width="48" height="48" viewBox="0 0 48 48" fill="none" xmlns="http://www.w3.org/2000/svg">
<rect width="48" height="48" rx="4" fill="#18171D"/>
<path d="M13.998 23.309C13.9981 23.5742 14.1035 23.8285 14.291 24.016L23.983 33.708C24.1706 33.8954 24.4249 34.0008 24.69 34.0008C24.9552 34.0008 25.2095 33.8954 25.397 33.708L33.705 25.401C33.8925 25.2134 33.9978 24.9591 33.9978 24.694C33.9978 24.4288 33.8925 24.1745 33.705 23.987L24.013 14.294C23.8256 14.1064 23.5712 14.001 23.306 14.001H14.998C14.7328 14.001 14.4785 14.1063 14.2909 14.2939C14.1034 14.4814 13.998 14.7358 13.998 15.001V23.309ZM15.998 16.001H22.892L31.584 24.693L24.69 31.587L15.998 22.895V16.001ZM21.921 19.155C22.1949 19.4288 22.3814 19.7777 22.4569 20.1575C22.5325 20.5373 22.4937 20.931 22.3455 21.2888C22.1973 21.6466 21.9464 21.9524 21.6244 22.1675C21.3024 22.3827 20.9238 22.4975 20.5365 22.4975C20.1493 22.4975 19.7707 22.3827 19.4487 22.1675C19.1267 21.9524 18.8758 21.6466 18.7276 21.2888C18.5794 20.931 18.5406 20.5373 18.6162 20.1575C18.6917 19.7777 18.8782 19.4288 19.152 19.155C19.3338 18.973 19.5496 18.8287 19.7872 18.7302C20.0247 18.6318 20.2794 18.5811 20.5365 18.5811C20.7937 18.5811 21.0483 18.6318 21.2859 18.7302C21.5235 18.8287 21.7393 18.973 21.921 19.155Z" fill="white"/>
</svg>
