<svg width="49" height="48" viewBox="0 0 49 48" fill="none" xmlns="http://www.w3.org/2000/svg">
<path d="M44.7354 0H4.12004C2.08084 0 0.427734 1.67893 0.427734 3.75V44.25C0.427734 46.3211 2.08084 48 4.12004 48H44.7354C46.7746 48 48.4277 46.3211 48.4277 44.25V3.75C48.4277 1.67893 46.7746 0 44.7354 0Z" fill="#18171D"/>
<path d="M34.5888 24.295L29.7358 29.1513L28.5226 27.938L32.1623 24.298L28.5226 20.6581L29.7358 19.4447L34.5888 24.295ZM16.4265 24.295L20.0662 27.935L18.8529 29.1513L14 24.295L18.8529 19.4418L20.0662 20.6551L16.4265 24.295ZM22.3965 32.0166H20.5715L26.1916 16.5742H28.0173L22.3965 32.0166Z" fill="white"/>
</svg>
