<svg width="48" height="48" viewBox="0 0 48 48" fill="none" xmlns="http://www.w3.org/2000/svg">
<rect width="48" height="48" rx="4" fill="#18171D"/>
<g clip-path="url(#clip0_8063_19201)">
<path d="M24 14C21.8783 14 19.8434 14.8429 18.3431 16.3431C16.8429 17.8434 16 19.8783 16 22V23.9C15.6983 24.1628 15.4539 24.4849 15.2819 24.8461C15.1099 25.2074 15.0139 25.6001 15 26C15.0228 26.5798 15.2202 27.1393 15.5664 27.605C15.9125 28.0708 16.3913 28.421 16.94 28.61C18.24 31.72 20.85 34 24 34H27V32H24C21.74 32 19.69 30.3 18.66 27.61L18.45 27.06L17.86 27C17.6197 26.966 17.4 26.8459 17.2418 26.6619C17.0835 26.4779 16.9976 26.2427 17 26C17.0011 25.8255 17.0478 25.6543 17.1355 25.5034C17.2232 25.3525 17.3489 25.2273 17.5 25.14L18 24.85V23C18 22.7348 18.1054 22.4804 18.2929 22.2929C18.4804 22.1054 18.7348 22 19 22H29C29.2652 22 29.5196 22.1054 29.7071 22.2929C29.8946 22.4804 30 22.7348 30 23V28H25.91C25.8192 27.7454 25.6613 27.5201 25.4531 27.3479C25.2448 27.1756 24.9938 27.0629 24.7267 27.0215C24.4596 26.9801 24.1863 27.0117 23.9357 27.1129C23.6851 27.214 23.4664 27.381 23.3029 27.5962C23.1394 27.8114 23.037 28.0668 23.0066 28.3353C22.9763 28.6039 23.019 28.8757 23.1304 29.1219C23.2418 29.3682 23.4176 29.5798 23.6393 29.7343C23.8611 29.8889 24.1204 29.9807 24.39 30H32C32.5304 30 33.0391 29.7893 33.4142 29.4142C33.7893 29.0391 34 28.5304 34 28V26C34 25.4696 33.7893 24.9609 33.4142 24.5858C33.0391 24.2107 32.5304 24 32 24V22C32 19.8783 31.1571 17.8434 29.6569 16.3431C28.1566 14.8429 26.1217 14 24 14Z" fill="white"/>
</g>
<defs>
<clipPath id="clip0_8063_19201">
<rect width="24" height="24" fill="white" transform="translate(12 12)"/>
</clipPath>
</defs>
</svg>
