<svg width="49" height="48" viewBox="0 0 49 48" fill="none" xmlns="http://www.w3.org/2000/svg">
<path d="M45.0772 0H4.46184C2.42263 0 0.769531 1.67893 0.769531 3.75V44.25C0.769531 46.3211 2.42263 48 4.46184 48H45.0772C47.1164 48 48.7695 46.3211 48.7695 44.25V3.75C48.7695 1.67893 47.1164 0 45.0772 0Z" fill="#18171D"/>
<path d="M31.9134 32.606H30.2193V30.9147C30.2193 30.2419 29.952 29.5967 29.4763 29.1209C29.0006 28.6451 28.3553 28.3779 27.6826 28.3779H22.6107C21.9379 28.3779 21.2927 28.6451 20.8169 29.1209C20.3412 29.5967 20.0739 30.2419 20.0739 30.9147V32.606H18.3828V30.9147C18.3824 30.3592 18.4915 29.8091 18.7038 29.2958C18.9161 28.7825 19.2274 28.316 19.6201 27.9231C20.0127 27.5302 20.4789 27.2185 20.992 27.0058C21.5052 26.7931 22.0552 26.6837 22.6107 26.6837H27.6848C28.8061 26.6837 29.8815 27.1291 30.6743 27.9221C31.4672 28.715 31.9126 29.7904 31.9126 30.9118L31.9134 32.606ZM25.1481 24.9946C24.1444 24.9952 23.163 24.6981 22.3282 24.1408C21.4933 23.5836 20.8425 22.7912 20.458 21.864C20.0735 20.9367 19.9727 19.9163 20.1682 18.9317C20.3637 17.9472 20.8468 17.0427 21.5564 16.3328C22.266 15.6228 23.1702 15.1393 24.1546 14.9433C25.139 14.7474 26.1594 14.8478 27.0868 15.2319C28.0141 15.616 28.8067 16.2665 29.3643 17.1012C29.9219 17.9358 30.2194 18.9171 30.2193 19.9209C30.2191 21.2661 29.6848 22.5562 28.7339 23.5076C27.783 24.459 26.4932 24.9939 25.1481 24.9946ZM25.1481 23.3034C25.817 23.3033 26.4709 23.1048 27.027 22.733C27.5831 22.3612 28.0165 21.8329 28.2724 21.2148C28.5283 20.5967 28.5951 19.9167 28.4645 19.2606C28.334 18.6045 28.0118 18.0018 27.5387 17.5289C27.0657 17.0559 26.463 16.7338 25.8069 16.6034C25.1509 16.4729 24.4708 16.5399 23.8528 16.796C23.2349 17.052 22.7067 17.4856 22.335 18.0418C21.9634 18.598 21.7651 19.252 21.7651 19.9209C21.7651 20.3652 21.8526 20.8051 22.0226 21.2155C22.1926 21.6259 22.4418 21.9989 22.756 22.313C23.0701 22.6271 23.4431 22.8762 23.8535 23.0461C24.264 23.2161 24.7039 23.3035 25.1481 23.3034Z" fill="white"/>
</svg>
