<svg width="48" height="48" viewBox="0 0 48 48" fill="none" xmlns="http://www.w3.org/2000/svg">
<rect width="48" height="48" rx="4.5" fill="white"/>
<rect x="0.375" y="0.375" width="47.25" height="47.25" rx="4.125" stroke="black" stroke-opacity="0.1" stroke-width="0.75"/>
<path d="M35.5151 17.857C35.5327 18.1123 35.5327 18.3676 35.5327 18.6252C35.5327 26.4758 29.5562 35.5299 18.6279 35.5299V35.5252C15.3997 35.5299 12.2385 34.6052 9.52087 32.8617C9.99029 32.9182 10.4621 32.9464 10.935 32.9475C13.6103 32.9499 16.2091 32.0522 18.3138 30.3994C15.7715 30.351 13.5421 28.6935 12.7632 26.2734C13.6538 26.4452 14.5715 26.4099 15.4456 26.1711C12.6738 25.6111 10.6797 23.1758 10.6797 20.3476C10.6797 20.3217 10.6797 20.297 10.6797 20.2723C11.5056 20.7323 12.4303 20.9876 13.3762 21.0158C10.7656 19.2711 9.96087 15.7982 11.5374 13.0829C14.5538 16.7946 19.0044 19.0511 23.7821 19.2899C23.3032 17.2264 23.9574 15.064 25.5009 13.6134C27.8939 11.364 31.6574 11.4793 33.9067 13.8711C35.2374 13.6087 36.5127 13.1205 37.6797 12.4287C37.2362 13.804 36.3079 14.9723 35.0679 15.7146C36.2456 15.5758 37.3962 15.2605 38.4797 14.7793C37.6821 15.9746 36.6774 17.0158 35.5151 17.857Z" fill="#1D9BF0"/>
<path d="M33.3408 9.32031L25.135 18.7005L18.0395 9.32031H7.75916L20.04 25.3772L8.40137 38.6797H13.3847L22.3674 28.4142L30.2185 38.6797H40.2409L27.4394 21.7555L38.3208 9.32031H33.3408ZM31.5932 35.6986L13.5768 12.1437H16.5382L34.3526 35.6969L31.5932 35.6986Z" fill="black"/>
<mask id="mask0_2007_7219" style="mask-type:alpha" maskUnits="userSpaceOnUse" x="15" y="10" width="26" height="27">
<path d="M15.7319 11.8198L33.3042 36.3821L40.47 10.4219L15.7319 11.8198Z" fill="#E0E0E0"/>
</mask>
<g mask="url(#mask0_2007_7219)">
<path d="M35.5151 17.857C35.5327 18.1123 35.5327 18.3676 35.5327 18.6252C35.5327 26.4758 29.5562 35.5299 18.6279 35.5299V35.5252C15.3997 35.5299 12.2385 34.6052 9.52087 32.8617C9.99029 32.9182 10.4621 32.9464 10.935 32.9475C13.6103 32.9499 16.2091 32.0522 18.3138 30.3994C15.7715 30.351 13.5421 28.6935 12.7632 26.2734C13.6538 26.4452 14.5715 26.4099 15.4456 26.1711C12.6738 25.6111 10.6797 23.1758 10.6797 20.3476C10.6797 20.3217 10.6797 20.297 10.6797 20.2723C11.5056 20.7323 12.4303 20.9876 13.3762 21.0158C10.7656 19.2711 9.96087 15.7982 11.5374 13.0829C14.5538 16.7946 19.0044 19.0511 23.7821 19.2899C23.3032 17.2264 23.9574 15.064 25.5009 13.6134C27.8939 11.364 31.6574 11.4793 33.9067 13.8711C35.2374 13.6087 36.5127 13.1205 37.6797 12.4287C37.2362 13.804 36.3079 14.9723 35.0679 15.7146C36.2456 15.5758 37.3962 15.2605 38.4797 14.7793C37.6821 15.9746 36.6774 17.0158 35.5151 17.857Z" fill="#1D9BF0"/>
</g>
</svg>
