<svg width="48" height="48" viewBox="0 0 48 48" fill="none" xmlns="http://www.w3.org/2000/svg">
<rect width="48" height="48" rx="4.5" fill="white"/>
<rect x="0.375" y="0.375" width="47.25" height="47.25" rx="4.125" stroke="black" stroke-opacity="0.1" stroke-width="0.75"/>
<g clip-path="url(#clip0_2181_3003)">
<path d="M7.40039 30.3309C7.40039 30.7727 7.56055 31.1067 7.88081 31.3332C8.20109 31.5596 8.54345 31.6396 8.9079 31.5734C9.25025 31.5071 9.49047 31.3856 9.62856 31.2089C9.76659 31.0322 9.83564 30.7395 9.83564 30.3309V25.5268C9.83564 25.1844 9.71693 24.8944 9.47946 24.657C9.24205 24.4196 8.95215 24.3009 8.60976 24.3009C8.27843 24.3009 7.99405 24.4196 7.7566 24.657C7.51914 24.8944 7.40039 25.1843 7.40039 25.5268V30.3309ZM11.2106 32.3851C11.2106 32.7054 11.3238 32.9456 11.5502 33.1058C11.7766 33.2659 12.0665 33.346 12.4199 33.346C12.7844 33.346 13.0798 33.2659 13.3062 33.1058C13.5326 32.9456 13.6458 32.7054 13.6458 32.3851V21.1864C13.6458 20.8551 13.5271 20.5707 13.2896 20.3333C13.0522 20.0959 12.7623 19.9771 12.4199 19.9771C12.0886 19.9771 11.8042 20.0959 11.5668 20.3333C11.3293 20.5708 11.2106 20.8551 11.2106 21.1864V32.3851ZM15.0042 32.9152C15.0042 33.2355 15.1202 33.4757 15.3521 33.6359C15.584 33.796 15.8822 33.8761 16.2467 33.8761C16.6001 33.8761 16.89 33.796 17.1164 33.6359C17.3428 33.4757 17.456 33.2355 17.456 32.9152V22.6939C17.456 22.3516 17.3373 22.0589 17.0999 21.8159C16.8624 21.573 16.578 21.4515 16.2467 21.4515C15.9043 21.4515 15.6117 21.573 15.3687 21.8159C15.1258 22.0589 15.0043 22.3516 15.0043 22.6939V32.9152H15.0042ZM18.8144 32.9649C18.8144 33.5724 19.2231 33.8761 20.0403 33.8761C20.8576 33.8761 21.2662 33.5724 21.2662 32.9649V16.3988C21.2662 15.4711 20.9846 14.9465 20.4213 14.8251C20.0569 14.7367 19.6979 14.8416 19.3445 15.1398C18.9911 15.438 18.8144 15.8577 18.8144 16.3988V32.9649H18.8144ZM22.6909 33.4453V15.4214C22.6909 14.8472 22.8621 14.5048 23.2045 14.3943C23.9444 14.2176 24.6789 14.1293 25.4078 14.1293C27.0975 14.1293 28.6713 14.5269 30.1291 15.322C31.5869 16.1172 32.7659 17.2023 33.6659 18.5773C34.566 19.9523 35.0879 21.468 35.2314 23.1247C35.9051 22.8375 36.623 22.694 37.385 22.694C38.9312 22.694 40.2537 23.2407 41.3526 24.334C42.4515 25.4274 43.0009 26.7416 43.0009 28.2768C43.0009 29.823 42.4515 31.1427 41.3526 32.2361C40.2537 33.3294 38.9367 33.8761 37.4016 33.8761L22.9891 33.8596C22.8896 33.8264 22.8151 33.7657 22.7654 33.6773C22.7157 33.589 22.6909 33.5116 22.6909 33.4453Z" fill="url(#paint0_linear_2181_3003)"/>
</g>
<defs>
<linearGradient id="paint0_linear_2181_3003" x1="44603.3" y1="759.217" x2="44603.3" y2="26850.4" gradientUnits="userSpaceOnUse">
<stop stop-color="#FF8800"/>
<stop offset="1" stop-color="#FF3300"/>
</linearGradient>
<clipPath id="clip0_2181_3003">
<rect width="35.6005" height="19.7512" fill="white" transform="translate(7.39941 14.1263)"/>
</clipPath>
</defs>
</svg>
