<svg width="48" height="48" viewBox="0 0 48 48" fill="none" xmlns="http://www.w3.org/2000/svg">
<rect width="48" height="48" rx="4.5" fill="white"/>
<rect x="0.375" y="0.375" width="47.25" height="47.25" rx="4.125" stroke="black" stroke-opacity="0.1" stroke-width="0.75"/>
<path d="M21.8579 21.4519V20.5167C21.5333 20.4653 21.2054 20.4371 20.8767 20.4324C17.6948 20.4256 14.8778 22.4876 13.9222 25.5226C12.9667 28.5576 14.0946 31.8616 16.7064 33.6787C15.7486 32.6537 15.108 31.3734 14.8619 29.9924C14.6158 28.6113 14.7746 27.1886 15.3193 25.8958C15.8639 24.603 16.7711 23.4955 17.9314 22.707C19.0916 21.9185 20.4552 21.4826 21.8577 21.452L21.8579 21.4519Z" fill="#25F4EE"/>
<path d="M22.0346 32.0458C23.8137 32.0435 25.276 30.642 25.3539 28.8647V13.0042H28.2514C28.1922 12.6728 28.164 12.3366 28.1671 12H24.2039V27.8451C24.138 29.6313 22.6722 31.0463 20.8847 31.0493C20.3505 31.0447 19.825 30.9133 19.3516 30.666C19.6584 31.0912 20.0614 31.4378 20.5277 31.6775C20.994 31.9173 21.5103 32.0435 22.0346 32.0458ZM33.6634 18.3855V17.5039C32.5971 17.5044 31.5543 17.1897 30.6661 16.5995C31.4448 17.5046 32.4968 18.1315 33.6634 18.3855Z" fill="#25F4EE"/>
<path d="M30.6664 16.5998C29.7915 15.6035 29.3092 14.3228 29.3097 12.9968H28.2517C28.3883 13.7299 28.6729 14.4275 29.0881 15.0469C29.5033 15.6664 30.0403 16.1948 30.6664 16.5998ZM20.8774 24.3958C20.1354 24.3996 19.4159 24.6513 18.8334 25.1109C18.2509 25.5705 17.8388 26.2117 17.6626 26.9325C17.4864 27.6532 17.5561 28.4122 17.8608 29.0888C18.1655 29.7653 18.6876 30.3207 19.3441 30.6663C18.9852 30.1707 18.7702 29.5855 18.723 28.9753C18.6758 28.3653 18.7982 27.754 19.0766 27.209C19.355 26.6641 19.7787 26.2067 20.3008 25.8874C20.8228 25.5682 21.423 25.3995 22.035 25.3999C22.3677 25.4043 22.698 25.4561 23.0161 25.5537V21.5211C22.6913 21.4724 22.3634 21.4468 22.035 21.4445H21.8586V24.5107C21.5388 24.425 21.2083 24.3863 20.8774 24.3958Z" fill="#FE2C55"/>
<path d="M33.6628 18.3853V21.4516C31.6886 21.4477 29.7657 20.8229 28.1665 19.6654V27.7221C28.158 31.7423 24.8966 34.9969 20.8764 34.9969C19.3833 34.9996 17.9262 34.5389 16.7061 33.6784C17.701 34.7486 18.9952 35.4943 20.42 35.8184C21.8449 36.1426 23.3343 36.0303 24.6943 35.4958C26.0543 34.9614 27.2219 34.0299 28.045 32.8224C28.868 31.6151 29.3084 30.1878 29.3087 28.7266V20.6927C30.9133 21.8425 32.8386 22.4592 34.8126 22.4558V18.5076C34.4261 18.5065 34.0408 18.4655 33.6628 18.3853Z" fill="#FE2C55"/>
<path d="M28.1671 27.7227V19.666C29.7712 20.8168 31.6967 21.4337 33.6711 21.4291V18.3629C32.5047 18.1166 31.4501 17.4978 30.6661 16.5998C30.04 16.1948 29.5029 15.6664 29.0878 15.0469C28.6726 14.4275 28.388 13.7299 28.2514 12.9968H25.3539V28.8652C25.3257 29.5558 25.083 30.2207 24.6596 30.767C24.2362 31.3135 23.653 31.7145 22.9912 31.9143C22.3294 32.114 21.6218 32.1028 20.9668 31.8818C20.3117 31.661 19.7417 31.2415 19.336 30.6818C18.6794 30.3362 18.1572 29.7808 17.8524 29.1043C17.5476 28.4277 17.4778 27.6686 17.6541 26.9478C17.8303 26.2269 18.2425 25.5857 18.8251 25.1261C19.4077 24.6664 20.1272 24.4148 20.8693 24.4111C21.2021 24.4141 21.5326 24.4657 21.8505 24.5644V21.4981C20.4405 21.522 19.0678 21.9557 17.9 22.7462C16.7322 23.5367 15.8196 24.6499 15.2735 25.9501C14.7274 27.2503 14.5714 28.6813 14.8246 30.0687C15.0777 31.456 15.729 32.7397 16.6991 33.7632C17.9313 34.5953 19.3905 35.0265 20.877 34.9975C24.8972 34.9975 28.1586 31.7428 28.1671 27.7227Z" fill="black"/>
</svg>
